<svg xmlns="http://www.w3.org/2000/svg" viewBox="0 0 750 500"><g id="freepik--background-simple--inject-381"><path d="M545.68,57.18S87.67,152.57,67.91,199c-10.1,23.72,0,229.43,67.89,233.73,49.36,3.12,382,27.74,543.93-12,49-12-16.32-282.71-41.24-317.08S575.76,50.31,545.68,57.18Z" style="fill:#92E3A9"></path><path d="M545.68,57.18S87.67,152.57,67.91,199c-10.1,23.72,0,229.43,67.89,233.73,49.36,3.12,382,27.74,543.93-12,49-12-16.32-282.71-41.24-317.08S575.76,50.31,545.68,57.18Z" style="fill:#fff;opacity:0.7000000000000001"></path></g><g id="freepik--Plant--inject-381"><path d="M94,285.23h0a.08.08,0,0,0,0-.11.09.09,0,0,0-.12,0,114.38,114.38,0,0,0-6,18.71,174.06,174.06,0,0,0-3.3,19.39l-.46,4.9c-.07.82-.16,1.64-.22,2.46l-.14,2.46c-.07,1.64-.17,3.28-.21,4.92l0,4.92.06,2.47c0,.82.09,1.63.15,2.45.12,1.64.22,3.28.37,4.91.32,3.27.81,6.52,1.31,9.75a.09.09,0,0,0,.09.07.09.09,0,0,0,.08-.08h0c0-1.64-.08-3.27-.11-4.91s-.19-3.26-.17-4.89,0-3.26,0-4.89l0-2.44,0-2.44,0-4.88.13-4.88,0-2.44c0-.81.09-1.63.14-2.44l.3-4.87a173,173,0,0,1,2.76-19.35A113.83,113.83,0,0,1,94,285.23Z" style="fill:#263238"></path><path d="M94.65,310.76a.09.09,0,0,0-.05-.11.08.08,0,0,0-.11.05A115.76,115.76,0,0,0,91,323.1,118.57,118.57,0,0,0,89,335.84c-.43,4.27-.91,8.55-1,12.84a106.57,106.57,0,0,0,.46,12.88s0,.07.08.08a.09.09,0,0,0,.09-.08c.5-4.27.8-8.54,1.1-12.8s.34-8.54.62-12.8a112.65,112.65,0,0,1,1.52-12.69A116.42,116.42,0,0,1,94.65,310.76Z" style="fill:#263238"></path><path d="M108.8,319.74a.08.08,0,0,0-.12,0A43.24,43.24,0,0,0,99.22,328a37,37,0,0,0-3.7,5.14l-.76,1.44L94.17,336a11.71,11.71,0,0,0-.52,1.51c-.16.51-.33,1-.46,1.53a60.29,60.29,0,0,0-2,12.48,72.36,72.36,0,0,0,.47,12.57.08.08,0,0,0,.08.07.08.08,0,0,0,.09-.08L93,351.67a111.2,111.2,0,0,1,1.57-12.27c.12-.5.26-1,.39-1.49a14.41,14.41,0,0,1,.43-1.46l.51-1.44.65-1.36a36.89,36.89,0,0,1,3.39-5.15,42.8,42.8,0,0,1,8.88-8.64h0A.08.08,0,0,0,108.8,319.74Z" style="fill:#263238"></path><path d="M102,335.72a13.77,13.77,0,0,0-4.3,5.18,30.48,30.48,0,0,0-2.41,6.33c-.17.54-.3,1.09-.42,1.65l-.39,1.65a27.06,27.06,0,0,0-.42,3.36c0,1.13-.05,2.26,0,3.38a29.13,29.13,0,0,0,.44,3.36.08.08,0,0,0,.07.07.09.09,0,0,0,.11-.07,30.12,30.12,0,0,0,.59-3.3c.18-1.1.35-2.19.48-3.28s.3-2.16.39-3.26.23-2.18.46-3.25a29.72,29.72,0,0,1,1.85-6.27,13.9,13.9,0,0,1,3.61-5.4h0a.08.08,0,0,0,0-.11A.09.09,0,0,0,102,335.72Z" style="fill:#263238"></path><path d="M82.11,348.19c-.47-5.53-1.38-11-2.24-16.46s-1.82-10.92-2.82-16.36-2.11-10.86-3.29-16.26a.08.08,0,0,0-.1-.07.09.09,0,0,0-.06.1q1.41,8.17,2.6,16.37c.83,5.47,1.61,10.94,2.3,16.41s1.21,11,1.89,16.45l2,16.44a.09.09,0,0,0,.09.08.09.09,0,0,0,.09-.08c.06-1.39.06-2.77.09-4.16s-.05-2.77-.08-4.16C82.55,353.71,82.32,351,82.11,348.19Z" style="fill:#263238"></path><path d="M78.8,348.11c-.3-2.19-.7-4.36-1.12-6.53l-.78-3.23c-.25-1.07-.49-2.15-.8-3.21a92.23,92.23,0,0,0-4.23-12.56l-.66-1.52-.74-1.49c-.46-1-1-2-1.57-2.92a24.7,24.7,0,0,0-4-5.29.09.09,0,0,0-.12,0,.07.07,0,0,0,0,.12h0a24.6,24.6,0,0,1,3.65,5.41c.48,1,1,2,1.4,3l.65,1.5.57,1.54a89.63,89.63,0,0,1,3.68,12.57c.51,2.12.84,4.29,1.25,6.43l.52,3.24c.19,1.07.42,2.14.57,3.23.34,2.16.74,4.31,1.12,6.47s.73,4.33,1.19,6.5a.08.08,0,0,0,.08.07.09.09,0,0,0,.09-.09q0-3.3-.16-6.62C79.29,352.5,79,350.31,78.8,348.11Z" style="fill:#263238"></path><path d="M74.22,348.39c-1-2.9-2.2-5.73-3.49-8.52a78.51,78.51,0,0,0-4.4-8.06.1.1,0,0,0-.12,0,.08.08,0,0,0,0,.12,74,74,0,0,1,3.75,8.32c1.13,2.82,2.14,5.69,3,8.6s1.49,5.88,2.26,8.8,1.47,5.87,2.37,8.83a.09.09,0,0,0,.08.06.09.09,0,0,0,.09-.08,44.39,44.39,0,0,0-.86-9.2A57.13,57.13,0,0,0,74.22,348.39Z" style="fill:#263238"></path><path d="M74,358.05A19.43,19.43,0,0,0,71.6,353a20.6,20.6,0,0,0-3.54-4.4,15.45,15.45,0,0,0-2.25-1.7,8.88,8.88,0,0,0-2.55-1.15.08.08,0,0,0-.1,0,.09.09,0,0,0,0,.12h0a12.77,12.77,0,0,1,4.24,3.29,20.13,20.13,0,0,1,3,4.47c.84,1.59,1.27,3.34,2,5,.32.83.64,1.68,1,2.51a22.77,22.77,0,0,0,1.11,2.56h0a.08.08,0,0,0,.07.05.09.09,0,0,0,.09-.09,20.45,20.45,0,0,0-.1-2.82C74.45,359.88,74.26,359,74,358.05Z" style="fill:#263238"></path><path d="M74.38,307a15.73,15.73,0,0,1-11.15-11.84c-2.08-9.75,4.65-5.57-1.39-20.89s-4.64-18.8-2.55-23.21,3.25-3,5.11,2.78,8.58,14.86,11.14,31.8S74.38,307,74.38,307Z" style="fill:#92E3A9"></path><path d="M92.25,290.54s-6-2.09-6.27-13.46,4.41-9.06,5.11-23.22,1.62-24.13,4.18-24.37,9.28,7,11.6,22.75-3,26.23-7.66,30.87S92.25,290.54,92.25,290.54Z" style="fill:#92E3A9"></path><path d="M71.13,320.71s-1.4-8.35-4.18-12.3S58.13,301,54.18,293.32s-8.35-11.37-8.12-.46,5.11,16.48,11.14,20.19S71.13,320.71,71.13,320.71Z" style="fill:#92E3A9"></path><path d="M68.57,335.1S63,324.43,54.88,316.53s-14.62-11.83-12.3-7.89,5.1,3.72,9.05,10.68,2.78,12.07,8.36,16S68.57,335.1,68.57,335.1Z" style="fill:#92E3A9"></path><path d="M67.88,348.8c-.24-.7-.47-5.81-8.36-10s-15.32-2.56-14.39-.47,5.8,5.57,10.68,7.66S67.88,348.8,67.88,348.8Z" style="fill:#92E3A9"></path><path d="M91.78,321.18s-3.48-4.41-1.62-13.7,6-7,10.68-11.84,3.71-5.57,8.35-10.67,8.82-7.89,10.68-5.81-.93,8.59-3.72,12.31S109,297,106.87,301.68s-1.16,12.07-6.5,15.55S91.78,321.18,91.78,321.18Z" style="fill:#92E3A9"></path><path d="M103.39,323.73s8.35-9.52,14.39-16.48,8.36-12.3,8.59-7.66,2.09,8.36-2.79,14.39S103.39,323.73,103.39,323.73Z" style="fill:#92E3A9"></path><path d="M99,339.05s-.23-3.72,13-12.3,18.8-10.22,17.4-6.74-7.19,7-13.46,13.23S99,339.05,99,339.05Z" style="fill:#92E3A9"></path><path d="M74.93,306s-3.11-16.65-6.36-28.49-5.34-19-5.34-19" style="fill:none;stroke:#263238;stroke-linecap:round;stroke-linejoin:round"></path><path d="M91.71,290.71s5.64-18,7.5-28.95-.23-19-1.16-23.91" style="fill:none;stroke:#263238;stroke-linecap:round;stroke-linejoin:round"></path><path d="M70.39,320.36a86.83,86.83,0,0,0-8.55-12.18c-5.1-6-9.05-9.29-11.37-15.09" style="fill:none;stroke:#263238;stroke-linecap:round;stroke-linejoin:round"></path><path d="M91.78,321.18s1.86-11.15,6.27-16.95,13.23-14.85,16.71-20.66" style="fill:none;stroke:#263238;stroke-linecap:round;stroke-linejoin:round"></path><path d="M67.33,348.54s-7.81-5.08-13.38-7.87" style="fill:none;stroke:#263238;stroke-linecap:round;stroke-linejoin:round"></path><path d="M112.05,395.33c-.52-14.09-16.17-23.48-16.17-23.48h-24s-15.65,9.39-16.18,23.48,17.74,65.72,17.74,65.72H94.32S112.57,409.41,112.05,395.33Z" style="fill:#263238;stroke:#263238;stroke-linecap:round;stroke-linejoin:round"></path><polygon points="98.97 358 68.36 358 71.9 371.85 95.44 371.85 98.97 358" style="fill:#263238;stroke:#263238;stroke-linecap:round;stroke-linejoin:round"></polygon></g><g id="freepik--paper-planes--inject-381"><path d="M591.47,121.11s-.48.73-1.41,2" style="fill:none;stroke:#263238;stroke-linecap:round;stroke-linejoin:round"></path><path d="M587.08,127.22c-12.21,16.09-49.09,58.67-99.74,62.29C424.76,194,365.17,94.91,302.6,65.85c-61.42-28.51-140-17.56-207.74,39.2" style="fill:none;stroke:#263238;stroke-linecap:round;stroke-linejoin:round;stroke-dasharray:5.030020236968994,5.030020236968994"></path><path d="M92.93,106.68,91,108.32" style="fill:none;stroke:#263238;stroke-linecap:round;stroke-linejoin:round"></path><polygon points="616.14 84.68 568.88 101.87 589.5 109.6 616.14 84.68" style="fill:#fff;stroke:#263238;stroke-linecap:round;stroke-linejoin:round"></polygon><polygon points="589.5 109.6 591.47 121.11 594.99 111.42 616.14 84.68 589.5 109.6" style="fill:#fff;stroke:#263238;stroke-linecap:round;stroke-linejoin:round"></polygon><polygon points="591.47 121.11 616.14 84.68 594.99 111.42 591.47 121.11" style="fill:#fff;stroke:#263238;stroke-linecap:round;stroke-linejoin:round"></polygon><polygon points="616.14 84.68 594.99 111.42 614.36 120.22 616.14 84.68" style="fill:#fff;stroke:#263238;stroke-linecap:round;stroke-linejoin:round"></polygon><path d="M100.21,205.18s26.58,80.2,88.84,126.56S404.82,401.14,474.57,374s171.28-63.22,221.35-42.41,38.64,60.4,15.89,73.83-34.6,17.19-105.18-16.51-155.14-95.28-155.14-95.28" style="fill:none;stroke:#263238;stroke-linecap:round;stroke-linejoin:round;stroke-dasharray:5,5"></path><polygon points="80.76 158.78 124.38 183.81 102.73 187.9 80.76 158.78" style="fill:#fff;stroke:#263238;stroke-linecap:round;stroke-linejoin:round"></polygon><polygon points="102.73 187.9 98.83 198.9 97.02 188.75 80.76 158.78 102.73 187.9" style="fill:#fff;stroke:#263238;stroke-linecap:round;stroke-linejoin:round"></polygon><polygon points="98.83 198.9 80.76 158.78 97.02 188.75 98.83 198.9" style="fill:#fff;stroke:#263238;stroke-linecap:round;stroke-linejoin:round"></polygon><polygon points="80.76 158.78 97.02 188.75 76.43 194.11 80.76 158.78" style="fill:#fff;stroke:#263238;stroke-linecap:round;stroke-linejoin:round"></polygon></g><g id="freepik--Stars--inject-381"><g style="opacity:0.30000000000000004"><polygon points="446.1 65.71 448.02 71.62 454.24 71.62 449.21 75.28 451.13 81.19 446.1 77.53 441.07 81.19 442.99 75.28 437.97 71.62 444.18 71.62 446.1 65.71" style="fill:none;stroke:#263238;stroke-linecap:round;stroke-linejoin:round"></polygon><polygon points="467.72 65.71 469.64 71.62 475.85 71.62 470.82 75.28 472.75 81.19 467.72 77.53 462.69 81.19 464.61 75.28 459.58 71.62 465.8 71.62 467.72 65.71" style="fill:none;stroke:#263238;stroke-linecap:round;stroke-linejoin:round"></polygon><polygon points="489.33 65.71 491.26 71.62 497.47 71.62 492.44 75.28 494.36 81.19 489.33 77.53 484.31 81.19 486.23 75.28 481.2 71.62 487.42 71.62 489.33 65.71" style="fill:none;stroke:#263238;stroke-linecap:round;stroke-linejoin:round"></polygon><polygon points="510.95 65.71 512.87 71.62 519.09 71.62 514.06 75.28 515.98 81.19 510.95 77.53 505.93 81.19 507.85 75.28 502.82 71.62 509.03 71.62 510.95 65.71" style="fill:none;stroke:#263238;stroke-linecap:round;stroke-linejoin:round"></polygon><polygon points="532.57 65.71 534.49 71.62 540.71 71.62 535.68 75.28 537.6 81.19 532.57 77.53 527.54 81.19 529.46 75.28 524.43 71.62 530.65 71.62 532.57 65.71" style="fill:none;stroke:#263238;stroke-linecap:round;stroke-linejoin:round"></polygon></g><g style="opacity:0.30000000000000004"><polygon points="439.4 410.17 441.32 416.08 447.53 416.08 442.5 419.74 444.42 425.65 439.4 422 434.37 425.65 436.29 419.74 431.26 416.08 437.48 416.08 439.4 410.17" style="fill:none;stroke:#263238;stroke-linecap:round;stroke-linejoin:round"></polygon><polygon points="461.01 410.17 462.93 416.08 469.15 416.08 464.12 419.74 466.04 425.65 461.01 422 455.99 425.65 457.91 419.74 452.88 416.08 459.09 416.08 461.01 410.17" style="fill:none;stroke:#263238;stroke-linecap:round;stroke-linejoin:round"></polygon><polygon points="482.63 410.17 484.55 416.08 490.77 416.08 485.74 419.74 487.66 425.65 482.63 422 477.6 425.65 479.52 419.74 474.5 416.08 480.71 416.08 482.63 410.17" style="fill:none;stroke:#263238;stroke-linecap:round;stroke-linejoin:round"></polygon><polygon points="504.25 410.17 506.17 416.08 512.38 416.08 507.36 419.74 509.27 425.65 504.25 422 499.22 425.65 501.14 419.74 496.11 416.08 502.33 416.08 504.25 410.17" style="fill:none;stroke:#263238;stroke-linecap:round;stroke-linejoin:round"></polygon><polygon points="525.87 410.17 527.78 416.08 534 416.08 528.97 419.74 530.89 425.65 525.87 422 520.84 425.65 522.76 419.74 517.73 416.08 523.94 416.08 525.87 410.17" style="fill:none;stroke:#263238;stroke-linecap:round;stroke-linejoin:round"></polygon></g><g style="opacity:0.30000000000000004"><polygon points="71.47 130.25 73.39 136.16 79.6 136.16 74.58 139.81 76.5 145.72 71.47 142.07 66.44 145.72 68.36 139.81 63.33 136.16 69.55 136.16 71.47 130.25" style="fill:none;stroke:#263238;stroke-linecap:round;stroke-linejoin:round"></polygon><polygon points="93.09 130.25 95.01 136.16 101.22 136.16 96.19 139.81 98.11 145.72 93.09 142.07 88.06 145.72 89.98 139.81 84.95 136.16 91.17 136.16 93.09 130.25" style="fill:none;stroke:#263238;stroke-linecap:round;stroke-linejoin:round"></polygon><polygon points="114.7 130.25 116.62 136.16 122.84 136.16 117.81 139.81 119.73 145.72 114.7 142.07 109.68 145.72 111.6 139.81 106.57 136.16 112.78 136.16 114.7 130.25" style="fill:none;stroke:#263238;stroke-linecap:round;stroke-linejoin:round"></polygon><polygon points="136.32 130.25 138.24 136.16 144.46 136.16 139.43 139.81 141.35 145.72 136.32 142.07 131.29 145.72 133.21 139.81 128.19 136.16 134.4 136.16 136.32 130.25" style="fill:none;stroke:#263238;stroke-linecap:round;stroke-linejoin:round"></polygon><polygon points="157.94 130.25 159.86 136.16 166.07 136.16 161.04 139.81 162.97 145.72 157.94 142.07 152.91 145.72 154.83 139.81 149.8 136.16 156.02 136.16 157.94 130.25" style="fill:none;stroke:#263238;stroke-linecap:round;stroke-linejoin:round"></polygon></g></g><g id="freepik--Device--inject-381"><path d="M380.14,386.3V438A10.93,10.93,0,0,1,369.2,449H282A10.93,10.93,0,0,1,271,438V386.3H255.09V440a14.28,14.28,0,0,0,14.28,14.28H381.79A14.28,14.28,0,0,0,396.08,440V386.3Z" style="fill:#263238;stroke:#263238;stroke-linecap:round;stroke-linejoin:round"></path><path d="M393.46,386.3V438A10.93,10.93,0,0,1,382.52,449H285A10.93,10.93,0,0,1,274,438V386.3h-5.61V440a14.28,14.28,0,0,0,14.28,14.28H384.78A14.28,14.28,0,0,0,399.07,440V386.3Z" style="fill:#fff;stroke:#263238;stroke-linecap:round;stroke-linejoin:round"></path><rect x="211.24" y="453.89" width="225.47" height="7.16" style="fill:#263238;stroke:#263238;stroke-linecap:round;stroke-linejoin:round"></rect><rect x="266.9" y="453.89" width="169.81" height="7.16" style="fill:#fff;stroke:#263238;stroke-linecap:round;stroke-linejoin:round"></rect><rect x="143.12" y="111.71" width="365.13" height="282.8" rx="8.52" style="fill:#263238;stroke:#263238;stroke-linecap:round;stroke-linejoin:round"></rect><rect x="151.17" y="111.71" width="365.13" height="282.8" rx="8.52" style="fill:#92E3A9;stroke:#263238;stroke-linecap:round;stroke-linejoin:round"></rect><path d="M166.58,117h334.3a8.52,8.52,0,0,1,8.52,8.52V367.3a0,0,0,0,1,0,0H158.06a0,0,0,0,1,0,0V125.57A8.52,8.52,0,0,1,166.58,117Z" style="fill:#fff;stroke:#263238;stroke-linecap:round;stroke-linejoin:round"></path></g><g id="freepik--Chart--inject-381"><path d="M459.31,160.85a35.76,35.76,0,0,0-38.15-22.14c-54.83,7.72-216.49,31.82-220.06,48.23-4.29,19.76-12,134.05,6,138.35s264.66,14.6,273.25-7.74C486.88,300.63,477.62,206.37,459.31,160.85Z" style="fill:#92E3A9"></path><path d="M459.31,160.85a35.76,35.76,0,0,0-38.15-22.14c-54.83,7.72-216.49,31.82-220.06,48.23-4.29,19.76-12,134.05,6,138.35s264.66,14.6,273.25-7.74C486.88,300.63,477.62,206.37,459.31,160.85Z" style="fill:#fff;opacity:0.7000000000000001"></path><circle cx="368.67" cy="209.12" r="20.49" transform="translate(-18.88 37.5) rotate(-5.68)" style="fill:#fff;stroke:#263238;stroke-linecap:round;stroke-linejoin:round"></circle><path d="M356.84,222.53a13.42,13.42,0,0,1,23.41-.44" style="fill:#fff;stroke:#263238;stroke-linecap:round;stroke-linejoin:round"></path><path d="M363.8,205.33c0,2.34-.69,4.24-1.54,4.24s-1.54-1.9-1.54-4.24.69-4.23,1.54-4.23S363.8,203,363.8,205.33Z" style="fill:#263238;stroke:#263238;stroke-linecap:round;stroke-linejoin:round"></path><path d="M375.35,205.33c0,2.34-.69,4.24-1.54,4.24s-1.54-1.9-1.54-4.24.69-4.23,1.54-4.23S375.35,203,375.35,205.33Z" style="fill:#263238;stroke:#263238;stroke-linecap:round;stroke-linejoin:round"></path><circle cx="328.31" cy="168.14" r="20.49" transform="translate(46.08 405.65) rotate(-67.2)" style="fill:#fff;stroke:#263238;stroke-linecap:round;stroke-linejoin:round"></circle><path d="M339.89,172.88a13.42,13.42,0,0,1-23.41.44" style="fill:#fff;stroke:#263238;stroke-linecap:round;stroke-linejoin:round"></path><path d="M323.44,164.36c0,2.34-.69,4.23-1.54,4.23s-1.54-1.89-1.54-4.23.69-4.24,1.54-4.24S323.44,162,323.44,164.36Z" style="fill:#263238;stroke:#263238;stroke-linecap:round;stroke-linejoin:round"></path><path d="M335,164.36c0,2.34-.68,4.23-1.54,4.23s-1.54-1.89-1.54-4.23.69-4.24,1.54-4.24S335,162,335,164.36Z" style="fill:#263238;stroke:#263238;stroke-linecap:round;stroke-linejoin:round"></path><circle cx="291.52" cy="239.1" r="20.49" transform="translate(-41.86 415.19) rotate(-67.2)" style="fill:#fff;stroke:#263238;stroke-linecap:round;stroke-linejoin:round"></circle><path d="M286.65,235.31c0,2.34-.69,4.24-1.54,4.24s-1.54-1.9-1.54-4.24.69-4.23,1.54-4.23S286.65,233,286.65,235.31Z" style="fill:#263238;stroke:#263238;stroke-linecap:round;stroke-linejoin:round"></path><path d="M298.2,235.31c0,2.34-.68,4.24-1.54,4.24s-1.54-1.9-1.54-4.24.69-4.23,1.54-4.23S298.2,233,298.2,235.31Z" style="fill:#263238;stroke:#263238;stroke-linecap:round;stroke-linejoin:round"></path><line x1="281.81" y1="227.08" x2="288.83" y2="231.55" style="fill:none;stroke:#263238;stroke-linecap:round;stroke-linejoin:round"></line><line x1="299.99" y1="227.08" x2="292.98" y2="231.55" style="fill:none;stroke:#263238;stroke-linecap:round;stroke-linejoin:round"></line><line x1="288.51" y1="247.81" x2="293.93" y2="247.81" style="fill:none;stroke:#263238;stroke-linecap:round;stroke-linejoin:round"></line><rect x="277.47" y="267.09" width="25.85" height="81.02" style="fill:#adadad;stroke:#263238;stroke-linecap:round;stroke-linejoin:round"></rect><rect x="315.02" y="195.4" width="25.85" height="152.71" style="fill:#92E3A9;stroke:#263238;stroke-linecap:round;stroke-linejoin:round"></rect><rect x="353.06" y="234.9" width="25.85" height="113.2" style="fill:#263238;stroke:#263238;stroke-linecap:round;stroke-linejoin:round"></rect><polygon points="287.73 122.06 289.65 127.97 295.86 127.97 290.83 131.62 292.75 137.53 287.73 133.88 282.7 137.53 284.62 131.62 279.59 127.97 285.81 127.97 287.73 122.06" style="fill:#263238"></polygon><polygon points="309.34 122.06 311.26 127.97 317.48 127.97 312.45 131.62 314.37 137.53 309.34 133.88 304.32 137.53 306.24 131.62 301.21 127.97 307.42 127.97 309.34 122.06" style="fill:#263238"></polygon><polygon points="330.96 122.06 332.88 127.97 339.1 127.97 334.07 131.62 335.99 137.53 330.96 133.88 325.93 137.53 327.85 131.62 322.83 127.97 329.04 127.97 330.96 122.06" style="fill:#263238"></polygon><polygon points="352.58 122.06 354.5 127.97 360.71 127.97 355.69 131.62 357.61 137.53 352.58 133.88 347.55 137.53 349.47 131.62 344.44 127.97 350.66 127.97 352.58 122.06" style="fill:#263238"></polygon><polygon points="374.19 122.06 376.12 127.97 382.33 127.97 377.3 131.62 379.22 137.53 374.19 133.88 369.17 137.53 371.09 131.62 366.06 127.97 372.27 127.97 374.19 122.06" style="fill:#263238"></polygon><polygon points="175.74 266.67 177.66 272.58 183.87 272.58 178.85 276.24 180.77 282.15 175.74 278.5 170.71 282.15 172.63 276.24 167.6 272.58 173.82 272.58 175.74 266.67" style="fill:#263238"></polygon><polygon points="197.36 266.67 199.28 272.58 205.49 272.58 200.46 276.24 202.38 282.15 197.36 278.5 192.33 282.15 194.25 276.24 189.22 272.58 195.44 272.58 197.36 266.67" style="fill:#263238"></polygon><polygon points="218.97 266.67 220.89 272.58 227.11 272.58 222.08 276.24 224 282.15 218.97 278.5 213.94 282.15 215.87 276.24 210.84 272.58 217.05 272.58 218.97 266.67" style="fill:#263238;opacity:0.2"></polygon><polygon points="240.59 266.67 242.51 272.58 248.72 272.58 243.7 276.24 245.62 282.15 240.59 278.5 235.56 282.15 237.48 276.24 232.46 272.58 238.67 272.58 240.59 266.67" style="fill:#263238;opacity:0.2"></polygon><polygon points="262.21 266.67 264.13 272.58 270.34 272.58 265.31 276.24 267.24 282.15 262.21 278.5 257.18 282.15 259.1 276.24 254.07 272.58 260.29 272.58 262.21 266.67" style="fill:#263238;opacity:0.2"></polygon><polygon points="397.82 223.28 399.74 229.19 405.95 229.19 400.93 232.84 402.85 238.75 397.82 235.1 392.79 238.75 394.71 232.84 389.69 229.19 395.9 229.19 397.82 223.28" style="fill:#263238"></polygon><polygon points="419.44 223.28 421.36 229.19 427.57 229.19 422.54 232.84 424.46 238.75 419.44 235.1 414.41 238.75 416.33 232.84 411.3 229.19 417.52 229.19 419.44 223.28" style="fill:#263238"></polygon><polygon points="441.05 223.28 442.97 229.19 449.19 229.19 444.16 232.84 446.08 238.75 441.05 235.1 436.03 238.75 437.95 232.84 432.92 229.19 439.13 229.19 441.05 223.28" style="fill:#263238"></polygon><polygon points="462.67 223.28 464.59 229.19 470.81 229.19 465.78 232.84 467.7 238.75 462.67 235.1 457.64 238.75 459.56 232.84 454.54 229.19 460.75 229.19 462.67 223.28" style="fill:#263238;opacity:0.2"></polygon><polygon points="484.29 223.28 486.21 229.19 492.42 229.19 487.4 232.84 489.32 238.75 484.29 235.1 479.26 238.75 481.18 232.84 476.15 229.19 482.37 229.19 484.29 223.28" style="fill:#263238;opacity:0.2"></polygon></g><g id="freepik--Character--inject-381"><polygon points="622.45 405.46 620.84 435.41 611.85 434.49 608.63 406.62 622.45 405.46" style="fill:#fff;stroke:#263238;stroke-linecap:round;stroke-linejoin:round"></polygon><path d="M624.52,432.65l-18.89.23.23,5.3s-2.3-6.45-2.53-3,1.84,8.3,1.61,9.22-.92,3.68-8.76,6.68-9.9,4.15-9,5.76,6.22,3.68,14,3.68a34.07,34.07,0,0,0,13.83-3l.23,2.53,9.21-.23a14.77,14.77,0,0,0,.92-7.83c-.69-4.38-1.61-8.29-1.38-9.68S624.52,432.65,624.52,432.65Z" style="fill:#263238;stroke:#263238;stroke-linecap:round;stroke-linejoin:round"></path><polygon points="597.57 405 603.1 437.72 612.77 437.72 615.77 404.54 597.57 405" style="fill:#fff;stroke:#263238;stroke-linecap:round;stroke-linejoin:round"></polygon><path d="M617.84,432.65l-18.89.23.23,5.3s-2.3-6.45-2.53-3,1.84,8.3,1.61,9.22-.92,3.68-8.76,6.68-9.9,4.15-9,5.76,4.93,4.21,12.76,4.21a50,50,0,0,0,14.47-2.27l.88,1.61,9.21-.23a16.49,16.49,0,0,0,.92-8.16c-.69-4.38-1.61-8.29-1.38-9.68S617.84,432.65,617.84,432.65Z" style="fill:#263238;stroke:#263238;stroke-linecap:round;stroke-linejoin:round"></path><path d="M577.52,314.69,574.76,408a239.73,239.73,0,0,0,28.11,2.53c13.36.23,31.56-4.14,31.56-4.14l-7.14-96.76-49.77-1.16Z" style="fill:#263238;stroke:#263238;stroke-linecap:round;stroke-linejoin:round"></path><path d="M594.81,229.86s-5.09,8.25-6.79,14.56-5.59,69.67-5.59,69.67l43.94.24s-2.19-51-7-67.72S610.72,227,610.72,227Z" style="fill:#fff;stroke:#263238;stroke-linecap:round;stroke-linejoin:round"></path><path d="M593.45,188.9s-2.41,3-3.82,5.22a7.66,7.66,0,0,1-4.82,3.62c-1.41.2-2.81,1.21-1.61,3.42a23.61,23.61,0,0,0,2.41,3.62s-.4,9.84,1.41,10.45,7.84-.2,7.84-.2l.4,10,13.27-2.81-.41-13.06s1-8.65-5-14.68S593.45,188.9,593.45,188.9Z" style="fill:#fff;stroke:#263238;stroke-linecap:round;stroke-linejoin:round"></path><path d="M592.16,197.27c-.1,1-.62,1.78-1.15,1.73s-.87-.92-.77-1.93.62-1.79,1.15-1.73S592.26,196.26,592.16,197.27Z" style="fill:#263238"></path><path d="M587.58,205.45s1.75.88,4.5-.62" style="fill:none;stroke:#263238;stroke-linecap:round;stroke-linejoin:round"></path><path d="M591.33,193s1.37-.87,2.62,1.13" style="fill:none;stroke:#263238;stroke-linecap:round;stroke-linejoin:round"></path><path d="M605,218.84s-14.67,3.26-14.67,4.73,1.46,8.15,1.46,8.15L610.72,227l-1.8-9Z" style="fill:#fff;stroke:#263238;stroke-linecap:round;stroke-linejoin:round"></path><path d="M611.32,222.33s-22.82,17.48-26.7,28.4-10.68,66.76-8.5,67,16.27,3.64,30.59,3.15,26.94-4.12,27.67-4.61-1.21-17-4.61-39.08S620.3,239.81,617.63,234A120,120,0,0,0,611.32,222.33Z" style="fill:#92E3A9;stroke:#263238;stroke-linecap:round;stroke-linejoin:round"></path><polyline points="608.56 232.98 600.35 242.17 593.85 243.64 593.85 247.18 583.23 264" style="fill:none;stroke:#263238;stroke-linecap:round;stroke-linejoin:round"></polyline><line x1="612.74" y1="228.3" x2="610.65" y2="230.64" style="fill:none;stroke:#263238;stroke-linecap:round;stroke-linejoin:round"></line><path d="M594.93,331.31s-5.26-.14-5.91,1.49-2.2,11.16-2.2,11.16l3.7.09s.79-8.44,1.61-9.42,12.76-1.52,13.9-.71,1.47,9.64,1.47,9.64h4.25s-1.47-8.66-3.27-11.11S594.93,331.31,594.93,331.31Z" style="fill:#adadad;stroke:#263238;stroke-linecap:round;stroke-linejoin:round"></path><path d="M620.32,342.9s-39.18,0-41.63.17a4.17,4.17,0,0,0-4.08,4.24c0,2.29-2.78,34.94-1.64,36.09s45.56,2.45,49,2.28a5.11,5.11,0,0,0,5.06-4.57c0-1.63-2.45-35.59-2.94-36.9S620.32,342.9,620.32,342.9Z" style="fill:#adadad;stroke:#263238;stroke-linecap:round;stroke-linejoin:round"></path><path d="M617.76,352.29a41.22,41.22,0,0,0,4-4.71,5.18,5.18,0,0,0,.54-2.7" style="fill:#adadad;stroke:#263238;stroke-linecap:round;stroke-linejoin:round"></path><path d="M576.34,346.86s19,24,22.43,23.06c2.12-.55,10.17-8.37,16.15-14.62" style="fill:#adadad;stroke:#263238;stroke-linecap:round;stroke-linejoin:round"></path><path d="M593.47,326.26s-1.81,10-.16,11,4.11-.49,4.11-.49a6.2,6.2,0,0,0,2.3.16,14,14,0,0,0,3.12-1.15,1.35,1.35,0,0,0,1.81-.33c.82-1,.82-8.54.82-8.54Z" style="fill:#fff;stroke:#263238;stroke-linecap:round;stroke-linejoin:round"></path><path d="M606.52,241.5s-7.76,1.22-11.4,8.26-3,46.12-3,46.12l-.24,32,14.32.49,11.65-64.81" style="fill:#92E3A9;stroke:#263238;stroke-linecap:round;stroke-linejoin:round"></path><path d="M621,185.68s-3.42-5-7.44-6.43-23.92-1-24.32,1.41,0,6,3.62,10.85,7.84,11.05,7.84,11.05,1,5.83,1.61,9.25-.21,10.85-.21,10.85a72.37,72.37,0,0,0,12.47.2c8.24-.4,11.85-2,11.85-2s-2-2.21-2.41-12.06S621,185.68,621,185.68Z" style="fill:#263238;stroke:#263238;stroke-linecap:round;stroke-linejoin:round"></path><path d="M619.05,178.79s-6.23,5.63-3.82,11.66,5.22,10.45,9.24,10.25,7.64-2.41,11.06-7,3.21-10.66-1.81-14.07S620.05,177.18,619.05,178.79Z" style="fill:#263238;stroke:#263238;stroke-linecap:round;stroke-linejoin:round"></path><path d="M598.48,205s4.62-5.43,6.43-2.82-.81,6.43-2.41,7.24l-1.61.8-1.61-.8" style="fill:#fff;stroke:#263238;stroke-linecap:round;stroke-linejoin:round"></path></g><g id="freepik--Floor--inject-381"><line x1="25.25" y1="461.05" x2="716.09" y2="461.05" style="fill:none;stroke:#263238;stroke-linecap:round;stroke-linejoin:round"></line></g></svg>
